<svg width="24" height="24" viewBox="0 0 24 24" fill="none" xmlns="http://www.w3.org/2000/svg">
<g filter="url(#filter0_d_1467_17846)">
<path fill-rule="evenodd" clip-rule="evenodd" d="M8.67273 6.8478C9.15998 6.66244 10.1213 6.77595 10.3751 7.34036C10.5913 7.82147 10.777 8.63269 10.7872 8.45982C10.8116 8.07556 10.7628 7.24456 10.9263 6.81031C11.045 6.49374 11.2785 6.19591 11.6226 6.09074C11.9119 6.00118 12.252 5.96994 12.5525 6.03346C12.8702 6.10011 13.2042 6.33233 13.329 6.5531C13.6965 7.20186 13.7026 8.53063 13.7198 8.45982C13.7848 8.17657 13.7909 7.18 14.0071 6.81031C14.1502 6.56559 14.5116 6.34691 14.7045 6.3115C15.0029 6.25735 15.3704 6.24069 15.683 6.30317C15.9358 6.3542 16.2779 6.6614 16.3703 6.81031C16.5926 7.16854 16.7174 8.18074 16.755 8.53688C16.7712 8.68371 16.8301 8.12763 17.0524 7.77044C17.4646 7.10502 18.9243 6.97589 18.9791 8.43587C19.0055 9.11692 18.9994 9.08568 18.9994 9.54387C18.9994 10.0812 18.9872 10.4061 18.9588 10.7956C18.9283 11.2111 18.841 12.1535 18.7142 12.6096C18.6269 12.9231 18.3375 13.6281 18.0513 14.0509C18.0513 14.0509 16.9611 15.3526 16.8423 15.9378C16.7235 16.5241 16.7631 16.5283 16.7388 16.9427C16.7154 17.3582 16.8616 17.9039 16.8616 17.9039C16.8616 17.9039 16.0485 18.0122 15.6089 17.9393C15.212 17.8747 14.7207 17.0646 14.5938 16.8167C14.4192 16.4751 14.0467 16.5408 13.9015 16.7928C13.6742 17.1916 13.1818 17.907 12.8357 17.9518C12.1566 18.0393 10.7496 17.983 9.64825 17.9726C9.64825 17.9726 9.83604 16.9198 9.41782 16.5585C9.10821 16.2877 8.57528 15.742 8.25654 15.4546L7.41197 14.4955C7.1247 14.1206 6.39484 13.5281 6.1502 12.4284C5.93398 11.4537 5.9553 10.9757 6.18776 10.5852C6.42326 10.1885 6.86788 9.97187 7.05466 9.93438C7.2658 9.89065 7.75711 9.89377 7.94287 9.99895C8.16924 10.127 8.2606 10.1645 8.43824 10.4061C8.67172 10.7258 8.75496 10.881 8.65446 10.5321C8.57731 10.2593 8.3276 9.91252 8.21391 9.52201C8.10326 9.14608 7.80685 8.54001 7.82817 7.9329C7.83629 7.70276 7.93272 7.13001 8.67273 6.8478Z" fill="white"/>
<path fill-rule="evenodd" clip-rule="evenodd" d="M8.67273 6.8478C9.15998 6.66244 10.1213 6.77595 10.3751 7.34036C10.5913 7.82147 10.777 8.63269 10.7872 8.45982C10.8116 8.07556 10.7628 7.24456 10.9263 6.81031C11.045 6.49374 11.2785 6.19591 11.6226 6.09074C11.9119 6.00118 12.252 5.96994 12.5525 6.03346C12.8702 6.10011 13.2042 6.33233 13.329 6.5531C13.6965 7.20186 13.7026 8.53063 13.7198 8.45982C13.7848 8.17657 13.7909 7.18 14.0071 6.81031C14.1502 6.56559 14.5116 6.34691 14.7045 6.3115C15.0029 6.25735 15.3704 6.24069 15.683 6.30317C15.9358 6.3542 16.2779 6.6614 16.3703 6.81031C16.5926 7.16854 16.7174 8.18074 16.755 8.53688C16.7712 8.68371 16.8301 8.12763 17.0524 7.77044C17.4646 7.10502 18.9243 6.97589 18.9791 8.43587C19.0055 9.11692 18.9994 9.08568 18.9994 9.54387C18.9994 10.0812 18.9872 10.4061 18.9588 10.7956C18.9283 11.2111 18.841 12.1535 18.7142 12.6096C18.6269 12.9231 18.3375 13.6281 18.0513 14.0509C18.0513 14.0509 16.9611 15.3526 16.8423 15.9378C16.7235 16.5241 16.7631 16.5283 16.7388 16.9427C16.7154 17.3582 16.8616 17.9039 16.8616 17.9039C16.8616 17.9039 16.0485 18.0122 15.6089 17.9393C15.212 17.8747 14.7207 17.0646 14.5938 16.8167C14.4192 16.4751 14.0467 16.5408 13.9015 16.7928C13.6742 17.1916 13.1818 17.907 12.8357 17.9518C12.1566 18.0393 10.7496 17.983 9.64825 17.9726C9.64825 17.9726 9.83604 16.9198 9.41782 16.5585C9.10821 16.2877 8.57528 15.742 8.25654 15.4546L7.41197 14.4955C7.1247 14.1206 6.39484 13.5281 6.1502 12.4284C5.93398 11.4537 5.9553 10.9757 6.18776 10.5852C6.42326 10.1885 6.86788 9.97187 7.05466 9.93438C7.2658 9.89065 7.75711 9.89377 7.94287 9.99895C8.16924 10.127 8.2606 10.1645 8.43824 10.4061C8.67172 10.7258 8.75496 10.881 8.65446 10.5321C8.57731 10.2593 8.3276 9.91252 8.21391 9.52201C8.10326 9.14608 7.80685 8.54001 7.82817 7.9329C7.83629 7.70276 7.93272 7.13001 8.67273 6.8478Z" stroke="#101828" stroke-width="0.75" stroke-linecap="round" stroke-linejoin="round"/>
</g>
<path fill-rule="evenodd" clip-rule="evenodd" d="M12 11.5C12 11.2239 11.7761 11 11.5 11C11.2239 11 11 11.2239 11 11.5V14.5C11 14.7761 11.2239 15 11.5 15C11.7761 15 12 14.7761 12 14.5V11.5ZM13.5 11C13.7761 11 14 11.2239 14 11.5V14.5C14 14.7761 13.7761 15 13.5 15C13.2239 15 13 14.7761 13 14.5V11.5C13 11.2239 13.2239 11 13.5 11ZM15.5 11C15.7761 11 16 11.2239 16 11.5V14.5C16 14.7761 15.7761 15 15.5 15C15.2239 15 15 14.7761 15 14.5V11.5C15 11.2239 15.2239 11 15.5 11Z" fill="#101828"/>
<defs>
<filter id="filter0_d_1467_17846" x="3.62498" y="4.625" width="17.75" height="16.75" filterUnits="userSpaceOnUse" color-interpolation-filters="sRGB">
<feFlood flood-opacity="0" result="BackgroundImageFix"/>
<feColorMatrix in="SourceAlpha" type="matrix" values="0 0 0 0 0 0 0 0 0 0 0 0 0 0 0 0 0 0 127 0" result="hardAlpha"/>
<feOffset dy="1"/>
<feGaussianBlur stdDeviation="1"/>
<feColorMatrix type="matrix" values="0 0 0 0 0.027451 0 0 0 0 0.12549 0 0 0 0 0.239216 0 0 0 0.24 0"/>
<feBlend mode="normal" in2="BackgroundImageFix" result="effect1_dropShadow_1467_17846"/>
<feBlend mode="normal" in="SourceGraphic" in2="effect1_dropShadow_1467_17846" result="shape"/>
</filter>
</defs>
</svg>
