<svg width="24" height="24" viewBox="0 0 24 24" fill="none" xmlns="http://www.w3.org/2000/svg">
<path d="M23.9131 17.4571C23.7476 17.0035 23.429 16.7584 23.0674 16.5623C23 16.5255 22.9387 16.4887 22.8835 16.4642C22.7732 16.4091 22.6629 16.3539 22.5526 16.2988C21.4249 15.6982 20.5424 14.9505 19.9357 14.0557C19.7641 13.8044 19.6108 13.5348 19.4883 13.259C19.4331 13.1119 19.4392 13.0261 19.476 12.9464C19.5128 12.8851 19.5618 12.8361 19.6231 12.7932C19.8192 12.6645 20.0153 12.5358 20.1502 12.45C20.3892 12.2907 20.5853 12.1681 20.7079 12.0823C21.1675 11.7575 21.4923 11.4143 21.6946 11.0282C21.9826 10.4889 22.0194 9.85761 21.7987 9.28765C21.4923 8.47868 20.7324 7.98226 19.807 7.98226C19.6108 7.98226 19.4209 8.00065 19.2247 8.04355C19.1757 8.0558 19.1206 8.06806 19.0715 8.08032C19.0777 7.52874 19.0654 6.94653 19.0164 6.37044C18.8448 4.35413 18.1339 3.30002 17.3984 2.4604C16.9265 1.93334 16.3749 1.48596 15.756 1.13663C14.6406 0.499254 13.3719 0.174438 11.993 0.174438C10.6141 0.174438 9.35159 0.499254 8.23618 1.13663C7.61719 1.48596 7.06562 1.93334 6.59372 2.4604C5.85829 3.30002 5.1535 4.36026 4.97577 6.37044C4.92674 6.94653 4.91449 7.52874 4.92062 8.08032C4.87159 8.06806 4.82256 8.0558 4.7674 8.04355C4.57741 8.00065 4.3813 7.98226 4.19131 7.98226C3.2659 7.98226 2.50595 8.4848 2.19952 9.28765C1.97889 9.85761 2.01567 10.4889 2.30371 11.0282C2.50595 11.4143 2.83077 11.7575 3.29041 12.0823C3.41298 12.1681 3.60297 12.2907 3.84811 12.45C3.97681 12.5358 4.1668 12.6584 4.35679 12.7809C4.4242 12.8238 4.47936 12.879 4.52226 12.9464C4.55903 13.0261 4.56516 13.1119 4.50387 13.2712C4.3813 13.5409 4.23421 13.8044 4.06261 14.0496C3.46814 14.9198 2.61014 15.6614 1.51925 16.2559C0.943163 16.5623 0.342561 16.7645 0.0851599 17.4571C-0.104826 17.978 0.0177454 18.5663 0.501904 19.0689C0.679633 19.2527 0.888005 19.4121 1.11476 19.5347C1.58666 19.7921 2.08921 19.9943 2.61627 20.1353C2.72658 20.1659 2.82464 20.2088 2.91657 20.2701C3.0943 20.4233 3.06978 20.6562 3.30267 20.9994C3.41911 21.1771 3.57233 21.3303 3.74393 21.4529C4.24034 21.7961 4.79804 21.8145 5.38639 21.839C5.91958 21.8574 6.52018 21.8819 7.21271 22.1087C7.50075 22.2006 7.79492 22.3844 8.13812 22.5989C8.96548 23.1076 10.0931 23.8001 11.9869 23.8001C13.8806 23.8001 15.0144 23.1015 15.8479 22.5928C16.1911 22.3844 16.4853 22.2006 16.761 22.1087C17.4475 21.8819 18.0542 21.8574 18.5874 21.839C19.1757 21.8145 19.7334 21.7961 20.2298 21.4529C20.4382 21.3058 20.6098 21.122 20.7324 20.9013C20.904 20.6133 20.8978 20.411 21.0572 20.2701C21.143 20.2088 21.241 20.1659 21.3391 20.1414C21.8662 20.0004 22.381 19.7982 22.859 19.5347C23.098 19.406 23.3186 19.2344 23.5025 19.0321L23.5086 19.026C23.9867 18.5357 24.1031 17.9596 23.9131 17.4571ZM22.2339 18.358C21.2104 18.9218 20.524 18.8605 19.9969 19.2037C19.5434 19.4917 19.8131 20.1169 19.4883 20.3436C19.0838 20.6194 17.8948 20.3252 16.3627 20.8339C15.0941 21.2507 14.2912 22.458 12.0114 22.458C9.73156 22.458 8.9471 21.2568 7.6601 20.8339C6.12795 20.3252 4.939 20.6255 4.53452 20.3436C4.2097 20.1169 4.47323 19.4917 4.02584 19.2037C3.49266 18.8605 2.81238 18.9218 1.78891 18.358C1.13315 17.9964 1.50699 17.7757 1.72149 17.6716C5.43542 15.8759 6.02989 13.0996 6.0544 12.8913C6.08505 12.64 6.12182 12.4439 5.84603 12.1926C5.5825 11.9475 4.40581 11.2182 4.07487 10.9914C3.53556 10.6114 3.29654 10.2376 3.47427 9.77181C3.59684 9.45312 3.89714 9.33055 4.2097 9.33055C4.30776 9.33055 4.40581 9.34281 4.50387 9.36119C5.09834 9.48989 5.67443 9.78407 6.00538 9.86987C6.04828 9.88212 6.08505 9.88825 6.12795 9.88825C6.30568 9.88825 6.36696 9.79632 6.35471 9.59408C6.31793 8.94445 6.22601 7.68196 6.33019 6.49914C6.47115 4.87507 6.99208 4.06609 7.61719 3.35518C7.9175 3.01197 9.32094 1.52886 12.0114 1.52886C14.7018 1.52886 16.1053 3.00585 16.4056 3.34905C17.0307 4.05996 17.5516 4.86894 17.6926 6.49301C17.7968 7.67583 17.7049 8.93832 17.662 9.58795C17.6497 9.80245 17.711 9.88212 17.8887 9.88212C17.9316 9.88212 17.9684 9.87599 18.0113 9.86374C18.3422 9.78406 18.9183 9.48376 19.5128 9.35506C19.6108 9.33055 19.7089 9.32442 19.807 9.32442C20.1195 9.32442 20.4198 9.44699 20.5424 9.76568C20.7201 10.2315 20.4811 10.6053 19.9418 10.9853C19.617 11.212 18.4403 11.9413 18.1706 12.1865C17.8948 12.4377 17.9316 12.6339 17.9623 12.8851C17.9868 13.0935 18.5812 15.8698 22.2952 17.6654C22.5158 17.7696 22.8835 17.9964 22.2339 18.358Z" fill="currentColor"/>
</svg>
